<svg xmlns="http://www.w3.org/2000/svg" xmlns:xlink="http://www.w3.org/1999/xlink" width="200" zoomAndPan="magnify" viewBox="0 0 150 149.999998" height="200" preserveAspectRatio="xMidYMid meet" version="1.2"><defs><clipPath id="789cc0cc9f"><path d="M 75 0.199219 L 88 0.199219 L 88 7 L 75 7 Z M 75 0.199219 "/></clipPath><clipPath id="1452f9ba21"><path d="M 62 0.199219 L 76 0.199219 L 76 7 L 62 7 Z M 62 0.199219 "/></clipPath><clipPath id="b5033f7fb4"><path d="M 27.789062 0.199219 L 122.601562 0.199219 L 122.601562 95 L 27.789062 95 Z M 27.789062 0.199219 "/></clipPath></defs><g id="729d527fce"><path style="fill:none;stroke-width:2;stroke-linecap:butt;stroke-linejoin:miter;stroke:#000000;stroke-opacity:1;stroke-miterlimit:4;" d="M 6.499463 1.000118 L 138.364386 1.000118 " transform="matrix(1.030588,0,0,1.030588,0.352511,125.383353)"/><path style="fill-rule:nonzero;fill:#000000;fill-opacity:1;stroke-width:2;stroke-linecap:round;stroke-linejoin:round;stroke:#000000;stroke-opacity:1;stroke-miterlimit:4;" d="M 0.999722 1.000118 L 4.001648 -2.001809 L 6.999784 1.000118 L 4.001648 3.998254 Z M 0.999722 1.000118 " transform="matrix(1.030588,0,0,1.030588,0.352511,125.383353)"/><path style="fill-rule:nonzero;fill:#000000;fill-opacity:1;stroke-width:2;stroke-linecap:round;stroke-linejoin:round;stroke:#000000;stroke-opacity:1;stroke-miterlimit:4;" d="M 143.864127 1.000118 L 140.862201 -2.001809 L 137.864064 1.000118 L 140.862201 3.998254 Z M 143.864127 1.000118 " transform="matrix(1.030588,0,0,1.030588,0.352511,125.383353)"/><path style=" stroke:none;fill-rule:evenodd;fill:#ba9345;fill-opacity:1;" d="M 75.214844 7.925781 C 73.203125 7.945312 71.199219 8.714844 69.679688 10.222656 L 68.453125 11.441406 C 68.742188 11.007812 69.074219 10.601562 69.457031 10.222656 C 71 8.691406 73.039062 7.925781 75.082031 7.921875 C 75.121094 7.921875 75.167969 7.921875 75.214844 7.925781 "/><g clip-rule="nonzero" clip-path="url(#789cc0cc9f)"><path style=" stroke:none;fill-rule:evenodd;fill:#ba9345;fill-opacity:1;" d="M 87.878906 6.46875 L 86.1875 4.789062 C 83.1875 1.8125 79.253906 0.296875 75.308594 0.238281 C 79.328125 0.238281 83.355469 1.757812 86.414062 4.792969 C 86.949219 5.324219 87.433594 5.882812 87.878906 6.46875 "/></g><path style=" stroke:none;fill-rule:evenodd;fill:#ba9345;fill-opacity:1;" d="M 37.203125 52.652344 C 36.171875 51.347656 35.617188 49.78125 35.539062 48.199219 C 35.652344 49.800781 36.207031 51.371094 37.203125 52.652344 "/><path style=" stroke:none;fill-rule:evenodd;fill:#ba9345;fill-opacity:1;" d="M 75.308594 87.277344 C 75.269531 87.277344 75.222656 87.277344 75.175781 87.273438 C 77.1875 87.253906 79.1875 86.488281 80.710938 84.976562 L 81.933594 83.761719 C 81.648438 84.191406 81.316406 84.601562 80.933594 84.976562 C 79.390625 86.511719 77.351562 87.277344 75.308594 87.277344 "/><path style=" stroke:none;fill-rule:evenodd;fill:#ba9345;fill-opacity:1;" d="M 64.203125 90.410156 C 67.234375 93.417969 71.210938 94.933594 75.195312 94.960938 C 75.15625 94.960938 75.117188 94.960938 75.082031 94.960938 C 71.0625 94.960938 67.035156 93.441406 63.980469 90.410156 C 63.445312 89.882812 62.957031 89.316406 62.515625 88.734375 L 64.203125 90.410156 "/><g clip-rule="nonzero" clip-path="url(#1452f9ba21)"><path style=" stroke:none;fill-rule:evenodd;fill:#ba9345;fill-opacity:1;" d="M 75.082031 0.238281 C 71.136719 0.296875 67.203125 1.8125 64.203125 4.789062 L 62.515625 6.46875 C 62.957031 5.882812 63.445312 5.320312 63.980469 4.789062 C 67.035156 1.757812 71.0625 0.238281 75.082031 0.238281 "/></g><path style=" stroke:none;fill-rule:evenodd;fill:#ba9345;fill-opacity:1;" d="M 81.9375 11.441406 L 80.710938 10.222656 C 79.199219 8.726562 77.210938 7.957031 75.214844 7.925781 C 75.246094 7.921875 75.277344 7.921875 75.308594 7.921875 C 77.351562 7.925781 79.390625 8.691406 80.9375 10.226562 C 81.320312 10.605469 81.652344 11.011719 81.9375 11.441406 "/><path style=" stroke:none;fill-rule:evenodd;fill:#ba9345;fill-opacity:1;" d="M 114.851562 47 C 114.746094 45.503906 114.25 44.035156 113.375 42.796875 C 114.285156 44.050781 114.777344 45.519531 114.851562 47 "/><path style=" stroke:none;fill-rule:evenodd;fill:#ba9345;fill-opacity:1;" d="M 114.851562 47 C 114.746094 45.503906 114.25 44.035156 113.375 42.796875 C 114.285156 44.050781 114.777344 45.519531 114.851562 47 "/><g clip-rule="nonzero" clip-path="url(#b5033f7fb4)"><path style=" stroke:none;fill-rule:evenodd;fill:#ba9345;fill-opacity:1;" d="M 75.308594 87.277344 C 75.269531 87.277344 75.222656 87.277344 75.175781 87.273438 C 75.144531 87.277344 75.113281 87.277344 75.082031 87.277344 C 73.042969 87.277344 71 86.511719 69.453125 84.976562 C 69.070312 84.597656 68.738281 84.1875 68.453125 83.757812 C 67.574219 82.441406 67.136719 80.917969 67.136719 79.394531 C 67.136719 77.367188 67.910156 75.339844 69.453125 73.804688 L 75.195312 68.109375 L 80.9375 73.804688 C 82.480469 75.339844 83.253906 77.367188 83.253906 79.394531 C 83.253906 80.921875 82.8125 82.445312 81.933594 83.761719 C 81.648438 84.191406 81.316406 84.601562 80.933594 84.976562 C 79.390625 86.511719 77.351562 87.277344 75.308594 87.277344 Z M 37.203125 52.652344 C 36.171875 51.347656 35.617188 49.78125 35.539062 48.199219 C 35.652344 49.800781 36.207031 51.371094 37.203125 52.652344 Z M 90.996094 79.394531 C 90.996094 78.019531 90.816406 76.644531 90.453125 75.308594 C 89.765625 72.761719 88.417969 70.359375 86.414062 68.371094 L 80.671875 62.675781 L 89.085938 54.324219 L 83.609375 48.890625 L 75.195312 57.238281 L 54.582031 36.785156 C 52.96875 35.183594 51.085938 34.003906 49.074219 33.25 L 47.085938 32.648438 C 45.898438 32.371094 44.691406 32.234375 43.476562 32.234375 C 39.453125 32.234375 35.429688 33.75 32.375 36.789062 C 29.371094 39.761719 27.839844 43.679688 27.789062 47.601562 L 27.792969 47.609375 C 27.84375 51.527344 29.371094 55.4375 32.375 58.417969 C 35.429688 61.453125 39.453125 62.964844 43.476562 62.964844 C 44.6875 62.964844 45.898438 62.828125 47.085938 62.554688 C 47.757812 62.398438 48.421875 62.195312 49.074219 61.953125 C 51.085938 61.195312 52.96875 60.019531 54.582031 58.417969 L 58.707031 54.324219 L 53.230469 48.890625 L 49.105469 52.984375 C 47.5625 54.519531 45.515625 55.285156 43.476562 55.28125 C 43.074219 55.285156 42.664062 55.253906 42.261719 55.191406 C 40.644531 54.949219 39.085938 54.210938 37.847656 52.984375 C 36.355469 51.503906 35.585938 49.5625 35.535156 47.609375 L 35.535156 47.605469 L 35.53125 47.601562 L 35.53125 47.398438 C 35.53125 45.371094 36.304688 43.347656 37.847656 41.816406 C 39.253906 40.925781 40.710938 40.273438 42.261719 40.011719 C 42.664062 39.949219 43.070312 39.917969 43.476562 39.917969 C 45.519531 39.917969 47.5625 40.683594 49.105469 42.21875 L 69.71875 62.675781 L 63.976562 68.371094 C 61.972656 70.359375 60.625 72.765625 59.9375 75.308594 C 59.574219 76.644531 59.394531 78.015625 59.394531 79.390625 C 59.394531 82.683594 60.433594 85.980469 62.515625 88.734375 L 64.203125 90.410156 C 67.234375 93.417969 71.210938 94.933594 75.195312 94.960938 C 79.179688 94.933594 83.15625 93.417969 86.1875 90.410156 L 87.882812 88.726562 C 89.960938 85.96875 90.996094 82.679688 90.996094 79.394531 Z M 69.453125 21.394531 C 67.910156 19.863281 67.136719 17.835938 67.136719 15.808594 C 67.136719 14.28125 67.578125 12.757812 68.453125 11.441406 C 68.742188 11.007812 69.074219 10.601562 69.457031 10.222656 C 71 8.691406 73.039062 7.925781 75.082031 7.921875 C 75.121094 7.921875 75.167969 7.921875 75.214844 7.925781 C 75.246094 7.921875 75.277344 7.921875 75.308594 7.921875 C 77.351562 7.925781 79.390625 8.691406 80.9375 10.226562 C 81.320312 10.605469 81.652344 11.011719 81.9375 11.441406 C 82.816406 12.757812 83.253906 14.285156 83.253906 15.808594 C 83.253906 17.835938 82.480469 19.863281 80.9375 21.394531 L 75.195312 27.09375 Z M 113.375 42.796875 C 114.285156 44.050781 114.777344 45.519531 114.851562 47 C 114.746094 45.503906 114.25 44.035156 113.375 42.796875 Z M 122.601562 47.601562 L 122.597656 47.59375 C 122.546875 43.671875 121.019531 39.761719 118.015625 36.78125 C 114.960938 33.75 110.9375 32.234375 106.914062 32.234375 C 105.699219 32.234375 104.492188 32.371094 103.304688 32.648438 C 102.632812 32.800781 101.96875 33.003906 101.3125 33.25 C 99.304688 34.003906 97.421875 35.183594 95.8125 36.78125 L 91.683594 40.878906 L 97.160156 46.3125 L 101.285156 42.214844 C 102.828125 40.683594 104.871094 39.917969 106.914062 39.917969 C 107.316406 39.917969 107.726562 39.949219 108.128906 40.011719 C 109.746094 40.253906 111.304688 40.988281 112.542969 42.21875 C 114.035156 43.699219 114.804688 45.636719 114.855469 47.59375 L 114.855469 47.597656 L 114.859375 47.601562 C 114.859375 47.667969 114.859375 47.734375 114.859375 47.804688 C 114.859375 49.832031 114.085938 51.855469 112.542969 53.386719 C 111.136719 54.273438 109.679688 54.925781 108.128906 55.191406 C 107.726562 55.253906 107.320312 55.28125 106.914062 55.28125 C 104.871094 55.28125 102.828125 54.519531 101.28125 52.984375 L 80.671875 32.527344 L 86.414062 26.828125 C 88.417969 24.839844 89.765625 22.433594 90.453125 19.894531 C 90.816406 18.554688 90.996094 17.183594 90.996094 15.8125 C 90.996094 12.519531 89.957031 9.222656 87.878906 6.46875 L 86.1875 4.789062 C 83.1875 1.8125 79.253906 0.296875 75.308594 0.238281 C 75.269531 0.238281 75.230469 0.238281 75.195312 0.238281 L 75.082031 0.238281 C 71.136719 0.296875 67.203125 1.8125 64.203125 4.789062 L 62.515625 6.46875 C 60.433594 9.222656 59.394531 12.519531 59.390625 15.808594 C 59.390625 17.179688 59.574219 18.558594 59.9375 19.894531 C 60.625 22.441406 61.972656 24.839844 63.976562 26.828125 L 69.71875 32.527344 L 61.304688 40.878906 L 66.78125 46.3125 L 75.195312 37.960938 L 95.808594 58.417969 C 97.421875 60.019531 99.304688 61.195312 101.3125 61.953125 L 103.304688 62.554688 C 104.492188 62.828125 105.699219 62.964844 106.914062 62.964844 C 110.9375 62.964844 114.960938 61.453125 118.015625 58.414062 C 121.019531 55.4375 122.550781 51.523438 122.601562 47.601562 "/></g><path style=" stroke:none;fill-rule:evenodd;fill:#ba9345;fill-opacity:1;" d="M 35.539062 48.199219 C 35.652344 49.800781 36.207031 51.371094 37.203125 52.652344 C 36.171875 51.347656 35.617188 49.78125 35.539062 48.199219 "/><path style=" stroke:none;fill-rule:evenodd;fill:#ba9345;fill-opacity:1;" d="M 69.679688 84.976562 C 71.191406 86.476562 73.179688 87.242188 75.175781 87.273438 C 75.144531 87.277344 75.113281 87.277344 75.082031 87.277344 C 73.042969 87.277344 71 86.511719 69.453125 84.976562 C 69.070312 84.597656 68.738281 84.1875 68.453125 83.757812 L 69.679688 84.976562 "/><path style=" stroke:none;fill-rule:evenodd;fill:#ba9345;fill-opacity:1;" d="M 86.410156 90.410156 C 83.355469 93.441406 79.328125 94.960938 75.308594 94.960938 C 75.273438 94.960938 75.234375 94.960938 75.195312 94.960938 C 79.179688 94.933594 83.15625 93.417969 86.1875 90.410156 L 87.882812 88.726562 C 87.441406 89.3125 86.949219 89.878906 86.410156 90.410156 "/><g style="fill:#000000;fill-opacity:1;"><g transform="translate(16.264072, 117.058788)"><path style="stroke:none" d="M 9.484375 -9.484375 C 9.941406 -9.347656 10.316406 -9.097656 10.609375 -8.734375 C 10.910156 -8.378906 11.132812 -7.960938 11.28125 -7.484375 C 11.425781 -7.015625 11.5 -6.539062 11.5 -6.0625 L 11.5 -4.46875 C 11.5 -3.113281 11.066406 -2.023438 10.203125 -1.203125 C 9.335938 -0.378906 8.175781 0.03125 6.71875 0.03125 L 1.78125 0.03125 L 1.78125 -18.1875 L 6.265625 -18.1875 C 7.773438 -18.1875 8.941406 -17.796875 9.765625 -17.015625 C 10.597656 -16.242188 11.015625 -15.140625 11.015625 -13.703125 L 11.015625 -12.484375 C 11.015625 -11.910156 10.894531 -11.316406 10.65625 -10.703125 C 10.414062 -10.097656 10.023438 -9.691406 9.484375 -9.484375 Z M 6.265625 -15.703125 L 4.625 -15.703125 L 4.625 -10.53125 L 6.265625 -10.53125 C 6.941406 -10.53125 7.429688 -10.691406 7.734375 -11.015625 C 8.046875 -11.335938 8.203125 -11.84375 8.203125 -12.53125 L 8.203125 -13.671875 C 8.203125 -14.429688 8.054688 -14.957031 7.765625 -15.25 C 7.472656 -15.550781 6.972656 -15.703125 6.265625 -15.703125 Z M 8.625 -4.484375 L 8.625 -6.015625 C 8.625 -6.703125 8.472656 -7.207031 8.171875 -7.53125 C 7.867188 -7.851562 7.382812 -8.015625 6.71875 -8.015625 L 4.625 -8.015625 L 4.625 -2.46875 L 6.71875 -2.46875 C 7.988281 -2.46875 8.625 -3.140625 8.625 -4.484375 Z M 8.625 -4.484375 "/></g></g><g style="fill:#000000;fill-opacity:1;"><g transform="translate(28.744811, 117.058788)"><path style="stroke:none" d="M 1.140625 -3.984375 L 1.140625 -8.140625 C 1.140625 -9.429688 1.523438 -10.460938 2.296875 -11.234375 C 3.078125 -12.003906 4.125 -12.390625 5.4375 -12.390625 C 6.738281 -12.390625 7.769531 -12.003906 8.53125 -11.234375 C 9.289062 -10.472656 9.671875 -9.441406 9.671875 -8.140625 L 9.671875 -5.234375 L 3.859375 -5.234375 L 3.859375 -4.03125 C 3.859375 -3.351562 4.019531 -2.863281 4.34375 -2.5625 C 4.664062 -2.269531 5.1875 -2.125 5.90625 -2.125 C 6.5 -2.125 6.992188 -2.210938 7.390625 -2.390625 C 7.796875 -2.578125 8.109375 -2.78125 8.328125 -3 L 9.59375 -1.046875 C 8.613281 -0.179688 7.382812 0.25 5.90625 0.25 C 4.332031 0.25 3.144531 -0.128906 2.34375 -0.890625 C 1.539062 -1.648438 1.140625 -2.679688 1.140625 -3.984375 Z M 3.828125 -7.359375 L 6.953125 -7.359375 L 6.953125 -8.09375 C 6.953125 -8.789062 6.832031 -9.28125 6.59375 -9.5625 C 6.363281 -9.851562 5.976562 -10 5.4375 -10 C 4.894531 -10 4.488281 -9.847656 4.21875 -9.546875 C 3.957031 -9.253906 3.828125 -8.769531 3.828125 -8.09375 Z M 3.828125 -7.359375 "/></g></g><g style="fill:#000000;fill-opacity:1;"><g transform="translate(39.272263, 117.058788)"><path style="stroke:none" d="M 2.125 4.625 L 3.984375 -0.890625 L 0.375 -12.046875 L 3.203125 -12.046875 L 5.4375 -4.140625 L 7.6875 -12.046875 L 10.5 -12.046875 L 4.953125 4.625 Z M 2.125 4.625 "/></g></g><g style="fill:#000000;fill-opacity:1;"><g transform="translate(49.723611, 117.058788)"><path style="stroke:none" d="M 5.484375 0.25 C 4.140625 0.25 3.078125 -0.128906 2.296875 -0.890625 C 1.523438 -1.648438 1.140625 -2.679688 1.140625 -3.984375 L 1.140625 -8.140625 C 1.140625 -9.460938 1.523438 -10.5 2.296875 -11.25 C 3.066406 -12.007812 4.128906 -12.390625 5.484375 -12.390625 C 6.835938 -12.390625 7.894531 -12.007812 8.65625 -11.25 C 9.425781 -10.5 9.8125 -9.460938 9.8125 -8.140625 L 9.8125 -3.984375 C 9.8125 -2.679688 9.425781 -1.648438 8.65625 -0.890625 C 7.894531 -0.128906 6.835938 0.25 5.484375 0.25 Z M 5.484375 -2.125 C 6.078125 -2.125 6.5 -2.269531 6.75 -2.5625 C 7 -2.851562 7.125 -3.34375 7.125 -4.03125 L 7.125 -8.09375 C 7.125 -8.789062 7 -9.28125 6.75 -9.5625 C 6.5 -9.851562 6.078125 -10 5.484375 -10 C 4.890625 -10 4.460938 -9.851562 4.203125 -9.5625 C 3.953125 -9.28125 3.828125 -8.789062 3.828125 -8.09375 L 3.828125 -4.03125 C 3.828125 -3.34375 3.953125 -2.851562 4.203125 -2.5625 C 4.460938 -2.269531 4.890625 -2.125 5.484375 -2.125 Z M 5.484375 -2.125 "/></g></g><g style="fill:#000000;fill-opacity:1;"><g transform="translate(60.707674, 117.058788)"><path style="stroke:none" d="M 7.125 -8.09375 C 7.125 -9.363281 6.617188 -10 5.609375 -10 C 5.285156 -10 4.972656 -9.957031 4.671875 -9.875 C 4.378906 -9.800781 4.179688 -9.75 4.078125 -9.71875 L 4.078125 0 L 1.375 0 L 1.375 -11.59375 C 2 -11.78125 2.671875 -11.957031 3.390625 -12.125 C 4.109375 -12.300781 4.878906 -12.390625 5.703125 -12.390625 C 6.734375 -12.390625 7.550781 -12.191406 8.15625 -11.796875 C 8.757812 -11.410156 9.1875 -10.894531 9.4375 -10.25 C 9.6875 -9.601562 9.8125 -8.882812 9.8125 -8.09375 L 9.8125 0 L 7.125 0 Z M 7.125 -8.09375 "/></g></g><g style="fill:#000000;fill-opacity:1;"><g transform="translate(71.641007, 117.058788)"><path style="stroke:none" d="M 5.5 -12.390625 C 5.675781 -12.390625 5.894531 -12.367188 6.15625 -12.328125 C 6.414062 -12.296875 6.65625 -12.265625 6.875 -12.234375 L 6.875 -18.421875 L 9.5625 -18.421875 L 9.5625 -0.53125 C 8.9375 -0.363281 8.269531 -0.191406 7.5625 -0.015625 C 6.851562 0.160156 6.078125 0.25 5.234375 0.25 C 3.835938 0.25 2.804688 -0.0234375 2.140625 -0.578125 C 1.472656 -1.140625 1.140625 -2.003906 1.140625 -3.171875 L 1.140625 -8.140625 C 1.140625 -9.441406 1.492188 -10.472656 2.203125 -11.234375 C 2.910156 -12.003906 4.007812 -12.390625 5.5 -12.390625 Z M 3.859375 -3.453125 C 3.859375 -2.992188 3.972656 -2.65625 4.203125 -2.4375 C 4.429688 -2.226562 4.804688 -2.125 5.328125 -2.125 C 5.671875 -2.125 6.019531 -2.160156 6.375 -2.234375 C 6.738281 -2.316406 6.90625 -2.367188 6.875 -2.390625 L 6.875 -9.84375 C 6.65625 -9.894531 6.410156 -9.929688 6.140625 -9.953125 C 5.867188 -9.984375 5.65625 -10 5.5 -10 C 4.914062 -10 4.492188 -9.851562 4.234375 -9.5625 C 3.984375 -9.28125 3.859375 -8.789062 3.859375 -8.09375 Z M 3.859375 -3.453125 "/></g></g><g style="fill:#000000;fill-opacity:1;"><g transform="translate(82.57434, 117.058788)"><path style="stroke:none" d=""/></g></g><g style="fill:#000000;fill-opacity:1;"><g transform="translate(87.952218, 117.058788)"><path style="stroke:none" d="M 4.625 -2.484375 L 10.828125 -2.484375 L 10.828125 0 L 1.78125 0 L 1.78125 -18.1875 L 4.625 -18.1875 Z M 4.625 -2.484375 "/></g></g><g style="fill:#000000;fill-opacity:1;"><g transform="translate(98.885551, 117.058788)"><path style="stroke:none" d="M 1.375 -14.109375 L 1.375 -16.84375 L 4.078125 -16.84375 L 4.078125 -14.109375 Z M 1.375 0 L 1.375 -12.046875 L 4.078125 -12.046875 L 4.078125 0 Z M 1.375 0 "/></g></g><g style="fill:#000000;fill-opacity:1;"><g transform="translate(104.339534, 117.058788)"><path style="stroke:none" d="M 11.140625 -12.390625 C 13.710938 -12.390625 15 -11.226562 15 -8.90625 L 15 0 L 12.3125 0 C 12.269531 -2.988281 12.269531 -5.984375 12.3125 -8.984375 C 12.3125 -9.453125 12.191406 -9.785156 11.953125 -9.984375 C 11.710938 -10.191406 11.363281 -10.296875 10.90625 -10.296875 C 10.46875 -10.296875 10.140625 -10.191406 9.921875 -9.984375 C 9.703125 -9.773438 9.578125 -9.519531 9.546875 -9.21875 L 9.546875 0 L 6.828125 0 L 6.84375 -8.90625 L 6.84375 -8.984375 C 6.84375 -9.453125 6.710938 -9.785156 6.453125 -9.984375 C 6.191406 -10.191406 5.804688 -10.296875 5.296875 -10.296875 C 5.023438 -10.296875 4.773438 -10.265625 4.546875 -10.203125 C 4.328125 -10.148438 4.171875 -10.097656 4.078125 -10.046875 L 4.078125 0 L 1.375 0 L 1.375 -11.625 C 1.488281 -11.675781 1.753906 -11.765625 2.171875 -11.890625 C 2.585938 -12.015625 3.097656 -12.132812 3.703125 -12.25 C 4.316406 -12.375 4.976562 -12.421875 5.6875 -12.390625 C 6.957031 -12.390625 7.921875 -12.109375 8.578125 -11.546875 C 8.910156 -11.816406 9.289062 -12.023438 9.71875 -12.171875 C 10.144531 -12.328125 10.617188 -12.398438 11.140625 -12.390625 Z M 11.140625 -12.390625 "/></g></g><g style="fill:#000000;fill-opacity:1;"><g transform="translate(120.447802, 117.058788)"><path style="stroke:none" d="M 1.375 -14.109375 L 1.375 -16.84375 L 4.078125 -16.84375 L 4.078125 -14.109375 Z M 1.375 0 L 1.375 -12.046875 L 4.078125 -12.046875 L 4.078125 0 Z M 1.375 0 "/></g></g><g style="fill:#000000;fill-opacity:1;"><g transform="translate(125.901784, 117.058788)"><path style="stroke:none" d="M 7.3125 0 C 5.664062 0.21875 4.398438 0.0195312 3.515625 -0.59375 C 2.628906 -1.207031 2.1875 -2.257812 2.1875 -3.75 L 2.1875 -9.6875 L 0.53125 -9.6875 L 0.53125 -12.046875 L 2.1875 -12.046875 L 2.1875 -16.234375 L 4.875 -16.234375 L 4.875 -12.046875 L 7.03125 -12.046875 L 7.03125 -9.6875 L 4.875 -9.6875 L 4.875 -4.078125 C 4.875 -3.253906 5.054688 -2.726562 5.421875 -2.5 C 5.796875 -2.269531 6.425781 -2.171875 7.3125 -2.203125 Z M 7.3125 0 "/></g></g><g style="fill:#000000;fill-opacity:1;"><g transform="translate(5.005829, 146.300222)"><path style="stroke:none" d="M 6.03125 -5.8125 C 6.03125 -5.46875 5.960938 -5.15625 5.828125 -4.875 C 5.578125 -4.320312 5.132812 -3.941406 4.5 -3.734375 C 4.28125 -3.660156 4.085938 -3.625 3.921875 -3.625 C 3.453125 -3.625 3.046875 -3.707031 2.703125 -3.875 L 2.703125 -4 C 3.253906 -3.875 3.769531 -3.9375 4.25 -4.1875 C 4.664062 -4.394531 4.953125 -4.742188 5.109375 -5.234375 C 5.148438 -5.390625 5.171875 -5.535156 5.171875 -5.671875 C 5.171875 -5.804688 5.171875 -5.890625 5.171875 -5.921875 C 5.160156 -6.453125 5.019531 -6.875 4.75 -7.1875 C 4.488281 -7.507812 4.113281 -7.671875 3.625 -7.671875 L 2.3125 -7.671875 L 2.3125 -0.84375 C 2.320312 -0.632812 2.394531 -0.457031 2.53125 -0.3125 C 2.675781 -0.175781 2.847656 -0.109375 3.046875 -0.109375 L 3.203125 -0.109375 L 3.203125 0 L 0.6875 0 L 0.6875 -0.109375 L 0.84375 -0.109375 C 1.039062 -0.109375 1.207031 -0.175781 1.34375 -0.3125 C 1.488281 -0.457031 1.5625 -0.632812 1.5625 -0.84375 L 1.5625 -7.234375 C 1.539062 -7.429688 1.460938 -7.59375 1.328125 -7.71875 C 1.191406 -7.84375 1.03125 -7.90625 0.84375 -7.90625 L 0.703125 -7.90625 L 0.6875 -8.015625 L 3.671875 -8.015625 C 4.410156 -8.015625 4.988281 -7.816406 5.40625 -7.421875 C 5.820312 -7.035156 6.03125 -6.5 6.03125 -5.8125 Z M 6.03125 -5.8125 "/></g></g><g style="fill:#000000;fill-opacity:1;"><g transform="translate(11.613453, 146.300222)"><path style="stroke:none" d="M 2.765625 -6.515625 L 2.171875 -6.515625 L 2.171875 -0.734375 C 2.171875 -0.492188 2.273438 -0.3125 2.484375 -0.1875 C 2.585938 -0.132812 2.695312 -0.109375 2.8125 -0.109375 L 2.96875 -0.109375 L 2.984375 0 L 0.625 0 L 0.625 -0.109375 L 0.796875 -0.109375 C 0.960938 -0.109375 1.109375 -0.164062 1.234375 -0.28125 C 1.367188 -0.40625 1.4375 -0.550781 1.4375 -0.71875 L 1.4375 -6.15625 C 1.4375 -6.320312 1.367188 -6.460938 1.234375 -6.578125 C 1.109375 -6.691406 0.960938 -6.75 0.796875 -6.75 L 0.625 -6.75 L 0.625 -6.875 L 3.5 -6.875 C 4.21875 -6.875 4.785156 -6.707031 5.203125 -6.375 C 5.617188 -6.050781 5.828125 -5.617188 5.828125 -5.078125 C 5.828125 -4.546875 5.660156 -4.097656 5.328125 -3.734375 C 4.992188 -3.378906 4.566406 -3.175781 4.046875 -3.125 C 4.285156 -3.019531 4.578125 -2.722656 4.921875 -2.234375 C 4.910156 -2.234375 5.039062 -2.0625 5.3125 -1.71875 C 5.59375 -1.382812 5.8125 -1.125 5.96875 -0.9375 C 6.132812 -0.757812 6.269531 -0.617188 6.375 -0.515625 C 6.65625 -0.242188 6.984375 -0.109375 7.359375 -0.109375 L 7.359375 0 L 7 0 C 6.394531 0 5.921875 -0.117188 5.578125 -0.359375 C 5.316406 -0.535156 5.082031 -0.753906 4.875 -1.015625 C 4.820312 -1.066406 4.625 -1.332031 4.28125 -1.8125 C 3.945312 -2.289062 3.769531 -2.546875 3.75 -2.578125 C 3.332031 -3.085938 2.945312 -3.34375 2.59375 -3.34375 L 2.59375 -3.453125 C 3.476562 -3.453125 4.015625 -3.5 4.203125 -3.59375 C 4.453125 -3.726562 4.625 -3.867188 4.71875 -4.015625 C 4.90625 -4.316406 5 -4.648438 5 -5.015625 C 5 -5.484375 4.863281 -5.84375 4.59375 -6.09375 C 4.320312 -6.34375 3.953125 -6.476562 3.484375 -6.5 C 3.273438 -6.507812 3.035156 -6.515625 2.765625 -6.515625 Z M 2.765625 -6.515625 "/></g></g><g style="fill:#000000;fill-opacity:1;"><g transform="translate(18.793664, 146.300222)"><path style="stroke:none" d="M 2.484375 -6.578125 C 3.078125 -6.878906 3.726562 -7.03125 4.4375 -7.03125 C 5.144531 -7.03125 5.789062 -6.878906 6.375 -6.578125 C 6.96875 -6.273438 7.4375 -5.847656 7.78125 -5.296875 C 8.125 -4.753906 8.296875 -4.132812 8.296875 -3.4375 C 8.296875 -2.738281 8.125 -2.113281 7.78125 -1.5625 C 7.4375 -1.019531 6.96875 -0.597656 6.375 -0.296875 C 5.789062 0.00390625 5.1875 0.15625 4.5625 0.15625 C 3.945312 0.15625 3.398438 0.0703125 2.921875 -0.09375 C 2.453125 -0.269531 2.039062 -0.515625 1.6875 -0.828125 C 1.34375 -1.148438 1.070312 -1.535156 0.875 -1.984375 C 0.675781 -2.429688 0.578125 -2.957031 0.578125 -3.5625 C 0.578125 -4.175781 0.75 -4.753906 1.09375 -5.296875 C 1.4375 -5.847656 1.898438 -6.273438 2.484375 -6.578125 Z M 2.28125 -1.09375 C 2.863281 -0.488281 3.582031 -0.1875 4.4375 -0.1875 C 5.289062 -0.1875 6.003906 -0.488281 6.578125 -1.09375 C 7.160156 -1.695312 7.453125 -2.476562 7.453125 -3.4375 C 7.453125 -4.394531 7.160156 -5.175781 6.578125 -5.78125 C 6.003906 -6.382812 5.289062 -6.6875 4.4375 -6.6875 C 3.582031 -6.6875 2.863281 -6.382812 2.28125 -5.78125 C 1.707031 -5.175781 1.421875 -4.394531 1.421875 -3.4375 C 1.421875 -2.476562 1.707031 -1.695312 2.28125 -1.09375 Z M 2.28125 -1.09375 "/></g></g><g style="fill:#000000;fill-opacity:1;"><g transform="translate(27.65727, 146.300222)"><path style="stroke:none" d="M 2.625 -3.25 C 2.800781 -3.207031 2.960938 -3.1875 3.109375 -3.1875 C 3.253906 -3.1875 3.367188 -3.1875 3.453125 -3.1875 C 3.546875 -3.195312 3.675781 -3.222656 3.84375 -3.265625 C 4.007812 -3.304688 4.164062 -3.375 4.3125 -3.46875 C 4.625 -3.664062 4.859375 -3.976562 5.015625 -4.40625 C 5.066406 -4.5625 5.09375 -4.769531 5.09375 -5.03125 C 5.09375 -5.5 4.929688 -5.863281 4.609375 -6.125 C 4.296875 -6.394531 3.851562 -6.53125 3.28125 -6.53125 L 2.171875 -6.53125 L 2.171875 -0.734375 C 2.179688 -0.484375 2.296875 -0.300781 2.515625 -0.1875 C 2.609375 -0.132812 2.71875 -0.109375 2.84375 -0.109375 L 3 -0.109375 L 3 0 L 0.625 0 L 0.625 -0.109375 L 0.796875 -0.109375 C 0.972656 -0.109375 1.125 -0.164062 1.25 -0.28125 C 1.375 -0.40625 1.441406 -0.550781 1.453125 -0.71875 L 1.453125 -6.15625 C 1.441406 -6.320312 1.375 -6.460938 1.25 -6.578125 C 1.125 -6.691406 0.972656 -6.75 0.796875 -6.75 L 0.625 -6.75 L 0.625 -6.875 L 3.3125 -6.875 C 4.113281 -6.875 4.75 -6.695312 5.21875 -6.34375 C 5.6875 -5.988281 5.921875 -5.515625 5.921875 -4.921875 C 5.921875 -4.492188 5.820312 -4.117188 5.625 -3.796875 C 5.238281 -3.171875 4.632812 -2.859375 3.8125 -2.859375 C 3.40625 -2.859375 3.007812 -2.953125 2.625 -3.140625 Z M 2.625 -3.25 "/></g></g><g style="fill:#000000;fill-opacity:1;"><g transform="translate(33.990055, 146.300222)"><path style="stroke:none" d="M 0.796875 -0.109375 C 0.972656 -0.109375 1.125 -0.164062 1.25 -0.28125 C 1.375 -0.40625 1.441406 -0.550781 1.453125 -0.71875 L 1.453125 -6.15625 C 1.453125 -6.320312 1.382812 -6.460938 1.25 -6.578125 C 1.125 -6.691406 0.972656 -6.75 0.796875 -6.75 L 0.625 -6.75 L 0.625 -6.875 L 3.96875 -6.875 C 4.28125 -6.875 4.554688 -6.894531 4.796875 -6.9375 C 5.035156 -6.988281 5.1875 -7.03125 5.25 -7.0625 L 5.25 -5.75 L 5.125 -5.765625 L 5.125 -5.9375 C 5.125 -6.09375 5.070312 -6.226562 4.96875 -6.34375 C 4.863281 -6.457031 4.726562 -6.515625 4.5625 -6.515625 L 2.171875 -6.515625 L 2.171875 -3.609375 L 4.140625 -3.609375 C 4.285156 -3.609375 4.398438 -3.648438 4.484375 -3.734375 C 4.566406 -3.828125 4.609375 -3.945312 4.609375 -4.09375 L 4.609375 -4.234375 L 4.734375 -4.234375 L 4.734375 -2.640625 L 4.609375 -2.640625 L 4.609375 -2.78125 C 4.609375 -3 4.523438 -3.144531 4.359375 -3.21875 C 4.296875 -3.238281 4.234375 -3.253906 4.171875 -3.265625 L 2.171875 -3.265625 L 2.171875 -0.359375 L 3.96875 -0.359375 C 4.320312 -0.359375 4.617188 -0.414062 4.859375 -0.53125 C 5.097656 -0.65625 5.28125 -0.800781 5.40625 -0.96875 C 5.53125 -1.132812 5.660156 -1.359375 5.796875 -1.640625 L 5.90625 -1.640625 L 5.28125 0 L 0.625 0 L 0.625 -0.109375 Z M 0.796875 -0.109375 "/></g></g><g style="fill:#000000;fill-opacity:1;"><g transform="translate(40.242678, 146.300222)"><path style="stroke:none" d="M 2.765625 -6.515625 L 2.171875 -6.515625 L 2.171875 -0.734375 C 2.171875 -0.492188 2.273438 -0.3125 2.484375 -0.1875 C 2.585938 -0.132812 2.695312 -0.109375 2.8125 -0.109375 L 2.96875 -0.109375 L 2.984375 0 L 0.625 0 L 0.625 -0.109375 L 0.796875 -0.109375 C 0.960938 -0.109375 1.109375 -0.164062 1.234375 -0.28125 C 1.367188 -0.40625 1.4375 -0.550781 1.4375 -0.71875 L 1.4375 -6.15625 C 1.4375 -6.320312 1.367188 -6.460938 1.234375 -6.578125 C 1.109375 -6.691406 0.960938 -6.75 0.796875 -6.75 L 0.625 -6.75 L 0.625 -6.875 L 3.5 -6.875 C 4.21875 -6.875 4.785156 -6.707031 5.203125 -6.375 C 5.617188 -6.050781 5.828125 -5.617188 5.828125 -5.078125 C 5.828125 -4.546875 5.660156 -4.097656 5.328125 -3.734375 C 4.992188 -3.378906 4.566406 -3.175781 4.046875 -3.125 C 4.285156 -3.019531 4.578125 -2.722656 4.921875 -2.234375 C 4.910156 -2.234375 5.039062 -2.0625 5.3125 -1.71875 C 5.59375 -1.382812 5.8125 -1.125 5.96875 -0.9375 C 6.132812 -0.757812 6.269531 -0.617188 6.375 -0.515625 C 6.65625 -0.242188 6.984375 -0.109375 7.359375 -0.109375 L 7.359375 0 L 7 0 C 6.394531 0 5.921875 -0.117188 5.578125 -0.359375 C 5.316406 -0.535156 5.082031 -0.753906 4.875 -1.015625 C 4.820312 -1.066406 4.625 -1.332031 4.28125 -1.8125 C 3.945312 -2.289062 3.769531 -2.546875 3.75 -2.578125 C 3.332031 -3.085938 2.945312 -3.34375 2.59375 -3.34375 L 2.59375 -3.453125 C 3.476562 -3.453125 4.015625 -3.5 4.203125 -3.59375 C 4.453125 -3.726562 4.625 -3.867188 4.71875 -4.015625 C 4.90625 -4.316406 5 -4.648438 5 -5.015625 C 5 -5.484375 4.863281 -5.84375 4.59375 -6.09375 C 4.320312 -6.34375 3.953125 -6.476562 3.484375 -6.5 C 3.273438 -6.507812 3.035156 -6.515625 2.765625 -6.515625 Z M 2.765625 -6.515625 "/></g></g><g style="fill:#000000;fill-opacity:1;"><g transform="translate(47.422888, 146.300222)"><path style="stroke:none" d="M 3.6875 -6.546875 L 3.6875 -0.71875 C 3.695312 -0.476562 3.8125 -0.300781 4.03125 -0.1875 C 4.132812 -0.132812 4.242188 -0.109375 4.359375 -0.109375 L 4.484375 -0.109375 L 4.484375 0 L 2.125 0 L 2.125 -0.109375 L 2.265625 -0.109375 C 2.453125 -0.109375 2.609375 -0.171875 2.734375 -0.296875 C 2.867188 -0.421875 2.9375 -0.566406 2.9375 -0.734375 L 2.9375 -6.546875 L 0.875 -6.546875 C 0.695312 -6.546875 0.554688 -6.488281 0.453125 -6.375 C 0.347656 -6.257812 0.296875 -6.117188 0.296875 -5.953125 L 0.296875 -5.765625 L 0.171875 -5.765625 L 0.171875 -7.0625 C 0.328125 -7 0.539062 -6.953125 0.8125 -6.921875 C 1.09375 -6.898438 1.300781 -6.890625 1.4375 -6.890625 L 5.171875 -6.890625 C 5.722656 -6.890625 6.148438 -6.945312 6.453125 -7.0625 L 6.453125 -5.765625 L 6.328125 -5.765625 L 6.328125 -5.953125 C 6.328125 -6.117188 6.273438 -6.257812 6.171875 -6.375 C 6.066406 -6.488281 5.929688 -6.546875 5.765625 -6.546875 Z M 3.6875 -6.546875 "/></g></g><g style="fill:#000000;fill-opacity:1;"><g transform="translate(54.041965, 146.300222)"><path style="stroke:none" d="M 7.390625 -6.75 L 7.25 -6.75 C 7.039062 -6.75 6.84375 -6.691406 6.65625 -6.578125 C 6.46875 -6.472656 6.316406 -6.335938 6.203125 -6.171875 L 4 -2.84375 L 4 -0.734375 C 4 -0.566406 4.0625 -0.421875 4.1875 -0.296875 C 4.320312 -0.171875 4.476562 -0.109375 4.65625 -0.109375 L 4.796875 -0.109375 L 4.796875 0 L 2.453125 0 L 2.453125 -0.109375 L 2.59375 -0.109375 C 2.769531 -0.109375 2.921875 -0.171875 3.046875 -0.296875 C 3.179688 -0.421875 3.25 -0.566406 3.25 -0.734375 L 3.25 -2.859375 L 1.140625 -6.1875 C 0.878906 -6.5625 0.523438 -6.75 0.078125 -6.75 L -0.0625 -6.75 L -0.0625 -6.875 L 2.59375 -6.875 L 2.59375 -6.75 L 2.46875 -6.75 C 2.320312 -6.75 2.210938 -6.703125 2.140625 -6.609375 C 2.078125 -6.523438 2.046875 -6.445312 2.046875 -6.375 C 2.046875 -6.3125 2.054688 -6.253906 2.078125 -6.203125 L 3.75 -3.234375 L 5.515625 -6.203125 C 5.546875 -6.253906 5.5625 -6.3125 5.5625 -6.375 C 5.5625 -6.445312 5.523438 -6.523438 5.453125 -6.609375 C 5.390625 -6.703125 5.28125 -6.75 5.125 -6.75 L 5 -6.75 L 5 -6.875 L 7.390625 -6.875 Z M 7.390625 -6.75 "/></g></g><g style="fill:#000000;fill-opacity:1;"><g transform="translate(61.371046, 146.300222)"><path style="stroke:none" d=""/></g></g><g style="fill:#000000;fill-opacity:1;"><g transform="translate(64.233973, 146.300222)"><path style="stroke:none" d="M 9.796875 -0.109375 L 9.96875 -0.109375 L 9.96875 0 L 7.59375 0 L 7.59375 -0.109375 L 7.765625 -0.109375 C 7.878906 -0.109375 7.976562 -0.148438 8.0625 -0.234375 C 8.15625 -0.316406 8.191406 -0.421875 8.171875 -0.546875 L 7.578125 -5.265625 L 5.421875 -1.015625 C 5.203125 -0.546875 5.066406 -0.15625 5.015625 0.15625 L 4.90625 0.15625 L 2.140625 -5.171875 L 1.625 -0.546875 C 1.613281 -0.429688 1.648438 -0.328125 1.734375 -0.234375 C 1.816406 -0.148438 1.921875 -0.109375 2.046875 -0.109375 L 2.203125 -0.109375 L 2.203125 0 L 0.09375 0 L 0.09375 -0.109375 L 0.265625 -0.109375 C 0.535156 -0.109375 0.75 -0.207031 0.90625 -0.40625 C 0.976562 -0.507812 1.023438 -0.628906 1.046875 -0.765625 L 1.9375 -7.03125 L 2.046875 -7.03125 L 5.078125 -1.21875 L 8 -7.03125 L 8.09375 -7.03125 L 9.03125 -0.75 C 9.0625 -0.550781 9.144531 -0.394531 9.28125 -0.28125 C 9.425781 -0.164062 9.597656 -0.109375 9.796875 -0.109375 Z M 9.796875 -0.109375 "/></g></g><g style="fill:#000000;fill-opacity:1;"><g transform="translate(74.288548, 146.300222)"><path style="stroke:none" d="M 7.5625 -0.109375 L 7.65625 -0.109375 L 7.65625 0 L 5.296875 0 L 5.296875 -0.109375 L 5.390625 -0.109375 C 5.535156 -0.109375 5.644531 -0.15625 5.71875 -0.25 C 5.800781 -0.351562 5.84375 -0.445312 5.84375 -0.53125 C 5.84375 -0.625 5.828125 -0.710938 5.796875 -0.796875 L 5.171875 -2.328125 L 2.265625 -2.328125 L 1.640625 -0.84375 C 1.597656 -0.738281 1.578125 -0.640625 1.578125 -0.546875 C 1.578125 -0.460938 1.613281 -0.367188 1.6875 -0.265625 C 1.769531 -0.160156 1.882812 -0.109375 2.03125 -0.109375 L 2.125 -0.109375 L 2.125 0 L -0.0625 0 L -0.0625 -0.109375 L 0.03125 -0.109375 C 0.195312 -0.109375 0.359375 -0.164062 0.515625 -0.28125 C 0.679688 -0.394531 0.816406 -0.5625 0.921875 -0.78125 C 2.597656 -4.351562 3.46875 -6.222656 3.53125 -6.390625 C 3.664062 -6.710938 3.738281 -6.925781 3.75 -7.03125 L 3.84375 -7.03125 L 6.671875 -0.78125 C 6.898438 -0.332031 7.195312 -0.109375 7.5625 -0.109375 Z M 2.421875 -2.671875 L 5.03125 -2.671875 L 3.75 -5.8125 Z M 2.421875 -2.671875 "/></g></g><g style="fill:#000000;fill-opacity:1;"><g transform="translate(81.881021, 146.300222)"><path style="stroke:none" d="M 8.328125 -6.75 C 8.160156 -6.75 8.015625 -6.691406 7.890625 -6.578125 C 7.765625 -6.472656 7.703125 -6.34375 7.703125 -6.1875 L 7.703125 -1.3125 C 7.703125 -0.863281 7.726562 -0.441406 7.78125 -0.046875 L 7.796875 0.15625 L 7.703125 0.15625 L 1.734375 -5.484375 L 1.734375 -0.703125 C 1.734375 -0.535156 1.796875 -0.394531 1.921875 -0.28125 C 2.046875 -0.164062 2.195312 -0.109375 2.375 -0.109375 L 2.5625 -0.109375 L 2.5625 0 L 0.40625 0 L 0.40625 -0.109375 L 0.59375 -0.109375 C 0.769531 -0.109375 0.914062 -0.164062 1.03125 -0.28125 C 1.15625 -0.394531 1.21875 -0.535156 1.21875 -0.703125 L 1.21875 -5.609375 C 1.21875 -6.078125 1.191406 -6.492188 1.140625 -6.859375 L 1.125 -7.046875 L 1.25 -7.03125 L 7.1875 -1.4375 L 7.1875 -6.1875 C 7.175781 -6.34375 7.109375 -6.472656 6.984375 -6.578125 C 6.859375 -6.691406 6.710938 -6.75 6.546875 -6.75 L 6.359375 -6.75 L 6.359375 -6.875 L 8.515625 -6.875 L 8.515625 -6.75 Z M 8.328125 -6.75 "/></g></g><g style="fill:#000000;fill-opacity:1;"><g transform="translate(90.801885, 146.300222)"><path style="stroke:none" d="M 7.5625 -0.109375 L 7.65625 -0.109375 L 7.65625 0 L 5.296875 0 L 5.296875 -0.109375 L 5.390625 -0.109375 C 5.535156 -0.109375 5.644531 -0.15625 5.71875 -0.25 C 5.800781 -0.351562 5.84375 -0.445312 5.84375 -0.53125 C 5.84375 -0.625 5.828125 -0.710938 5.796875 -0.796875 L 5.171875 -2.328125 L 2.265625 -2.328125 L 1.640625 -0.84375 C 1.597656 -0.738281 1.578125 -0.640625 1.578125 -0.546875 C 1.578125 -0.460938 1.613281 -0.367188 1.6875 -0.265625 C 1.769531 -0.160156 1.882812 -0.109375 2.03125 -0.109375 L 2.125 -0.109375 L 2.125 0 L -0.0625 0 L -0.0625 -0.109375 L 0.03125 -0.109375 C 0.195312 -0.109375 0.359375 -0.164062 0.515625 -0.28125 C 0.679688 -0.394531 0.816406 -0.5625 0.921875 -0.78125 C 2.597656 -4.351562 3.46875 -6.222656 3.53125 -6.390625 C 3.664062 -6.710938 3.738281 -6.925781 3.75 -7.03125 L 3.84375 -7.03125 L 6.671875 -0.78125 C 6.898438 -0.332031 7.195312 -0.109375 7.5625 -0.109375 Z M 2.421875 -2.671875 L 5.03125 -2.671875 L 3.75 -5.8125 Z M 2.421875 -2.671875 "/></g></g><g style="fill:#000000;fill-opacity:1;"><g transform="translate(98.394358, 146.300222)"><path style="stroke:none" d="M 4.328125 0.15625 C 3.191406 0.15625 2.28125 -0.164062 1.59375 -0.8125 C 0.914062 -1.457031 0.578125 -2.332031 0.578125 -3.4375 C 0.578125 -4.539062 0.914062 -5.414062 1.59375 -6.0625 C 2.28125 -6.707031 3.160156 -7.03125 4.234375 -7.03125 C 5.316406 -7.03125 6.238281 -6.800781 7 -6.34375 L 7.25 -4.71875 L 7.140625 -4.71875 C 6.984375 -5.394531 6.671875 -5.890625 6.203125 -6.203125 C 5.742188 -6.523438 5.09375 -6.6875 4.25 -6.6875 C 3.40625 -6.6875 2.71875 -6.394531 2.1875 -5.8125 C 1.65625 -5.226562 1.390625 -4.4375 1.390625 -3.4375 C 1.390625 -2.4375 1.65625 -1.644531 2.1875 -1.0625 C 2.726562 -0.476562 3.46875 -0.1875 4.40625 -0.1875 C 5.351562 -0.1875 6.164062 -0.515625 6.84375 -1.171875 L 6.859375 -2.703125 C 6.867188 -2.835938 6.820312 -2.945312 6.71875 -3.03125 C 6.625 -3.113281 6.492188 -3.15625 6.328125 -3.15625 L 6.171875 -3.15625 L 6.171875 -3.265625 L 8.265625 -3.265625 L 8.265625 -3.15625 L 8.109375 -3.15625 C 7.765625 -3.15625 7.59375 -3 7.59375 -2.6875 L 7.59375 -1.3125 C 7.269531 -0.914062 6.828125 -0.570312 6.265625 -0.28125 C 5.703125 0.0078125 5.054688 0.15625 4.328125 0.15625 Z M 4.328125 0.15625 "/></g></g><g style="fill:#000000;fill-opacity:1;"><g transform="translate(106.891507, 146.300222)"><path style="stroke:none" d="M 0.796875 -0.109375 C 0.972656 -0.109375 1.125 -0.164062 1.25 -0.28125 C 1.375 -0.40625 1.441406 -0.550781 1.453125 -0.71875 L 1.453125 -6.15625 C 1.453125 -6.320312 1.382812 -6.460938 1.25 -6.578125 C 1.125 -6.691406 0.972656 -6.75 0.796875 -6.75 L 0.625 -6.75 L 0.625 -6.875 L 3.96875 -6.875 C 4.28125 -6.875 4.554688 -6.894531 4.796875 -6.9375 C 5.035156 -6.988281 5.1875 -7.03125 5.25 -7.0625 L 5.25 -5.75 L 5.125 -5.765625 L 5.125 -5.9375 C 5.125 -6.09375 5.070312 -6.226562 4.96875 -6.34375 C 4.863281 -6.457031 4.726562 -6.515625 4.5625 -6.515625 L 2.171875 -6.515625 L 2.171875 -3.609375 L 4.140625 -3.609375 C 4.285156 -3.609375 4.398438 -3.648438 4.484375 -3.734375 C 4.566406 -3.828125 4.609375 -3.945312 4.609375 -4.09375 L 4.609375 -4.234375 L 4.734375 -4.234375 L 4.734375 -2.640625 L 4.609375 -2.640625 L 4.609375 -2.78125 C 4.609375 -3 4.523438 -3.144531 4.359375 -3.21875 C 4.296875 -3.238281 4.234375 -3.253906 4.171875 -3.265625 L 2.171875 -3.265625 L 2.171875 -0.359375 L 3.96875 -0.359375 C 4.320312 -0.359375 4.617188 -0.414062 4.859375 -0.53125 C 5.097656 -0.65625 5.28125 -0.800781 5.40625 -0.96875 C 5.53125 -1.132812 5.660156 -1.359375 5.796875 -1.640625 L 5.90625 -1.640625 L 5.28125 0 L 0.625 0 L 0.625 -0.109375 Z M 0.796875 -0.109375 "/></g></g><g style="fill:#000000;fill-opacity:1;"><g transform="translate(113.14413, 146.300222)"><path style="stroke:none" d="M 9.796875 -0.109375 L 9.96875 -0.109375 L 9.96875 0 L 7.59375 0 L 7.59375 -0.109375 L 7.765625 -0.109375 C 7.878906 -0.109375 7.976562 -0.148438 8.0625 -0.234375 C 8.15625 -0.316406 8.191406 -0.421875 8.171875 -0.546875 L 7.578125 -5.265625 L 5.421875 -1.015625 C 5.203125 -0.546875 5.066406 -0.15625 5.015625 0.15625 L 4.90625 0.15625 L 2.140625 -5.171875 L 1.625 -0.546875 C 1.613281 -0.429688 1.648438 -0.328125 1.734375 -0.234375 C 1.816406 -0.148438 1.921875 -0.109375 2.046875 -0.109375 L 2.203125 -0.109375 L 2.203125 0 L 0.09375 0 L 0.09375 -0.109375 L 0.265625 -0.109375 C 0.535156 -0.109375 0.75 -0.207031 0.90625 -0.40625 C 0.976562 -0.507812 1.023438 -0.628906 1.046875 -0.765625 L 1.9375 -7.03125 L 2.046875 -7.03125 L 5.078125 -1.21875 L 8 -7.03125 L 8.09375 -7.03125 L 9.03125 -0.75 C 9.0625 -0.550781 9.144531 -0.394531 9.28125 -0.28125 C 9.425781 -0.164062 9.597656 -0.109375 9.796875 -0.109375 Z M 9.796875 -0.109375 "/></g></g><g style="fill:#000000;fill-opacity:1;"><g transform="translate(123.198719, 146.300222)"><path style="stroke:none" d="M 0.796875 -0.109375 C 0.972656 -0.109375 1.125 -0.164062 1.25 -0.28125 C 1.375 -0.40625 1.441406 -0.550781 1.453125 -0.71875 L 1.453125 -6.15625 C 1.453125 -6.320312 1.382812 -6.460938 1.25 -6.578125 C 1.125 -6.691406 0.972656 -6.75 0.796875 -6.75 L 0.625 -6.75 L 0.625 -6.875 L 3.96875 -6.875 C 4.28125 -6.875 4.554688 -6.894531 4.796875 -6.9375 C 5.035156 -6.988281 5.1875 -7.03125 5.25 -7.0625 L 5.25 -5.75 L 5.125 -5.765625 L 5.125 -5.9375 C 5.125 -6.09375 5.070312 -6.226562 4.96875 -6.34375 C 4.863281 -6.457031 4.726562 -6.515625 4.5625 -6.515625 L 2.171875 -6.515625 L 2.171875 -3.609375 L 4.140625 -3.609375 C 4.285156 -3.609375 4.398438 -3.648438 4.484375 -3.734375 C 4.566406 -3.828125 4.609375 -3.945312 4.609375 -4.09375 L 4.609375 -4.234375 L 4.734375 -4.234375 L 4.734375 -2.640625 L 4.609375 -2.640625 L 4.609375 -2.78125 C 4.609375 -3 4.523438 -3.144531 4.359375 -3.21875 C 4.296875 -3.238281 4.234375 -3.253906 4.171875 -3.265625 L 2.171875 -3.265625 L 2.171875 -0.359375 L 3.96875 -0.359375 C 4.320312 -0.359375 4.617188 -0.414062 4.859375 -0.53125 C 5.097656 -0.65625 5.28125 -0.800781 5.40625 -0.96875 C 5.53125 -1.132812 5.660156 -1.359375 5.796875 -1.640625 L 5.90625 -1.640625 L 5.28125 0 L 0.625 0 L 0.625 -0.109375 Z M 0.796875 -0.109375 "/></g></g><g style="fill:#000000;fill-opacity:1;"><g transform="translate(129.451342, 146.300222)"><path style="stroke:none" d="M 8.328125 -6.75 C 8.160156 -6.75 8.015625 -6.691406 7.890625 -6.578125 C 7.765625 -6.472656 7.703125 -6.34375 7.703125 -6.1875 L 7.703125 -1.3125 C 7.703125 -0.863281 7.726562 -0.441406 7.78125 -0.046875 L 7.796875 0.15625 L 7.703125 0.15625 L 1.734375 -5.484375 L 1.734375 -0.703125 C 1.734375 -0.535156 1.796875 -0.394531 1.921875 -0.28125 C 2.046875 -0.164062 2.195312 -0.109375 2.375 -0.109375 L 2.5625 -0.109375 L 2.5625 0 L 0.40625 0 L 0.40625 -0.109375 L 0.59375 -0.109375 C 0.769531 -0.109375 0.914062 -0.164062 1.03125 -0.28125 C 1.15625 -0.394531 1.21875 -0.535156 1.21875 -0.703125 L 1.21875 -5.609375 C 1.21875 -6.078125 1.191406 -6.492188 1.140625 -6.859375 L 1.125 -7.046875 L 1.25 -7.03125 L 7.1875 -1.4375 L 7.1875 -6.1875 C 7.175781 -6.34375 7.109375 -6.472656 6.984375 -6.578125 C 6.859375 -6.691406 6.710938 -6.75 6.546875 -6.75 L 6.359375 -6.75 L 6.359375 -6.875 L 8.515625 -6.875 L 8.515625 -6.75 Z M 8.328125 -6.75 "/></g></g><g style="fill:#000000;fill-opacity:1;"><g transform="translate(138.372199, 146.300222)"><path style="stroke:none" d="M 3.6875 -6.546875 L 3.6875 -0.71875 C 3.695312 -0.476562 3.8125 -0.300781 4.03125 -0.1875 C 4.132812 -0.132812 4.242188 -0.109375 4.359375 -0.109375 L 4.484375 -0.109375 L 4.484375 0 L 2.125 0 L 2.125 -0.109375 L 2.265625 -0.109375 C 2.453125 -0.109375 2.609375 -0.171875 2.734375 -0.296875 C 2.867188 -0.421875 2.9375 -0.566406 2.9375 -0.734375 L 2.9375 -6.546875 L 0.875 -6.546875 C 0.695312 -6.546875 0.554688 -6.488281 0.453125 -6.375 C 0.347656 -6.257812 0.296875 -6.117188 0.296875 -5.953125 L 0.296875 -5.765625 L 0.171875 -5.765625 L 0.171875 -7.0625 C 0.328125 -7 0.539062 -6.953125 0.8125 -6.921875 C 1.09375 -6.898438 1.300781 -6.890625 1.4375 -6.890625 L 5.171875 -6.890625 C 5.722656 -6.890625 6.148438 -6.945312 6.453125 -7.0625 L 6.453125 -5.765625 L 6.328125 -5.765625 L 6.328125 -5.953125 C 6.328125 -6.117188 6.273438 -6.257812 6.171875 -6.375 C 6.066406 -6.488281 5.929688 -6.546875 5.765625 -6.546875 Z M 3.6875 -6.546875 "/></g></g></g></svg>