<svg xmlns="http://www.w3.org/2000/svg" xmlns:xlink="http://www.w3.org/1999/xlink" width="60" zoomAndPan="magnify" viewBox="0 0 45 44.999999" height="60" preserveAspectRatio="xMidYMid meet" version="1.2"><g id="51f569fea4"><path style=" stroke:none;fill-rule:nonzero;fill:#ba9345;fill-opacity:1;" d="M 34.078125 45 L 11.042969 45 C 4.953125 45 0.0585938 40.105469 0.0585938 34.019531 L 0.0585938 10.980469 C 0.0585938 4.894531 4.953125 0 11.042969 0 L 33.957031 0 C 40.046875 0 44.941406 4.894531 44.941406 10.980469 L 44.941406 33.898438 C 44.941406 39.988281 40.046875 44.878906 33.957031 44.878906 Z M 11.042969 3.582031 C 6.984375 3.582031 3.640625 6.921875 3.640625 10.980469 L 3.640625 33.898438 C 3.640625 37.957031 6.984375 41.300781 11.042969 41.300781 L 33.957031 41.300781 C 38.015625 41.300781 41.359375 37.957031 41.359375 33.898438 L 41.359375 10.980469 C 41.359375 6.921875 38.015625 3.582031 33.957031 3.582031 Z M 11.042969 3.582031 "/><path style=" stroke:none;fill-rule:nonzero;fill:#ba9345;fill-opacity:1;" d="M 22.621094 37.003906 C 14.742188 37.003906 8.414062 30.675781 8.414062 22.796875 C 8.414062 14.921875 14.742188 8.59375 22.621094 8.59375 C 30.496094 8.59375 36.824219 14.921875 36.824219 22.796875 C 36.824219 30.675781 30.496094 37.003906 22.621094 37.003906 Z M 22.621094 12.054688 C 16.652344 12.054688 11.875 16.832031 11.875 22.796875 C 11.875 28.765625 16.652344 33.542969 22.621094 33.542969 C 28.585938 33.542969 33.363281 28.765625 33.363281 22.796875 C 33.363281 16.832031 28.585938 12.054688 22.621094 12.054688 Z M 22.621094 12.054688 "/><path style=" stroke:none;fill-rule:nonzero;fill:#ba9345;fill-opacity:1;" d="M 22.621094 29.242188 C 19.039062 29.242188 16.171875 26.378906 16.171875 22.796875 C 16.171875 19.21875 19.039062 16.351562 22.621094 16.351562 C 26.199219 16.351562 29.066406 19.21875 29.066406 22.796875 C 29.066406 26.378906 26.199219 29.242188 22.621094 29.242188 Z M 22.621094 19.933594 C 21.066406 19.933594 19.753906 21.246094 19.753906 22.796875 C 19.753906 24.351562 21.066406 25.664062 22.621094 25.664062 C 24.171875 25.664062 25.484375 24.351562 25.484375 22.796875 C 25.484375 21.246094 24.171875 19.933594 22.621094 19.933594 Z M 22.621094 19.933594 "/><path style=" stroke:none;fill-rule:nonzero;fill:#ba9345;fill-opacity:1;" d="M 38.015625 9.429688 C 38.015625 9.746094 37.957031 10.050781 37.835938 10.34375 C 37.714844 10.636719 37.542969 10.894531 37.316406 11.117188 C 37.09375 11.339844 36.835938 11.515625 36.542969 11.636719 C 36.25 11.757812 35.945312 11.816406 35.628906 11.816406 C 35.3125 11.816406 35.007812 11.757812 34.714844 11.636719 C 34.425781 11.515625 34.164062 11.339844 33.941406 11.117188 C 33.71875 10.894531 33.546875 10.636719 33.425781 10.34375 C 33.304688 10.050781 33.242188 9.746094 33.242188 9.429688 C 33.242188 9.113281 33.304688 8.808594 33.425781 8.515625 C 33.546875 8.222656 33.71875 7.964844 33.941406 7.742188 C 34.164062 7.519531 34.425781 7.34375 34.714844 7.222656 C 35.007812 7.101562 35.3125 7.042969 35.628906 7.042969 C 35.945312 7.042969 36.25 7.101562 36.542969 7.222656 C 36.835938 7.34375 37.09375 7.519531 37.316406 7.742188 C 37.542969 7.964844 37.714844 8.222656 37.835938 8.515625 C 37.957031 8.808594 38.015625 9.113281 38.015625 9.429688 Z M 38.015625 9.429688 "/></g></svg>