<svg xmlns="http://www.w3.org/2000/svg" xmlns:xlink="http://www.w3.org/1999/xlink" width="60" zoomAndPan="magnify" viewBox="0 0 45 44.999999" height="60" preserveAspectRatio="xMidYMid meet" version="1.2"><defs><clipPath id="57ead9c0cf"><path d="M 23 24 L 45 24 L 45 42.835938 L 23 42.835938 Z M 23 24 "/></clipPath><clipPath id="3ed3fd28da"><path d="M 0 25 L 31 25 L 31 42.835938 L 0 42.835938 Z M 0 25 "/></clipPath><clipPath id="192bd084be"><path d="M 0 21 L 42 21 L 42 42.835938 L 0 42.835938 Z M 0 21 "/></clipPath><clipPath id="ce0da9e063"><path d="M 11 2.335938 L 34 2.335938 L 34 31 L 11 31 Z M 11 2.335938 "/></clipPath></defs><g id="90f089132a"><path style=" stroke:none;fill-rule:nonzero;fill:#000000;fill-opacity:1;" d="M 40.902344 25.320312 L 39.609375 21.128906 C 39.464844 20.652344 39.25 20.210938 38.960938 19.800781 C 38.675781 19.394531 38.332031 19.042969 37.929688 18.75 C 37.53125 18.453125 37.09375 18.226562 36.621094 18.074219 C 36.148438 17.917969 35.660156 17.84375 35.164062 17.84375 L 9.679688 17.84375 C 9.183594 17.84375 8.699219 17.917969 8.222656 18.074219 C 7.75 18.226562 7.3125 18.453125 6.914062 18.75 C 6.511719 19.046875 6.167969 19.394531 5.882812 19.804688 C 5.59375 20.210938 5.378906 20.652344 5.234375 21.128906 L 4.550781 23.347656 C 4.445312 23.691406 4.457031 24.03125 4.589844 24.363281 C 4.71875 24.699219 4.9375 24.957031 5.246094 25.140625 L 27.988281 38.519531 C 28.300781 38.703125 28.636719 38.769531 29 38.714844 C 29.359375 38.664062 29.660156 38.503906 29.910156 38.238281 L 40.550781 26.835938 C 40.742188 26.632812 40.867188 26.394531 40.929688 26.125 C 40.992188 25.855469 40.984375 25.585938 40.902344 25.320312 Z M 40.902344 25.320312 "/><path style=" stroke:none;fill-rule:nonzero;fill:#000000;fill-opacity:1;" d="M 12.90625 26.046875 L 6.820312 22.46875 C 6.617188 22.347656 6.394531 22.277344 6.160156 22.257812 C 5.921875 22.238281 5.695312 22.273438 5.472656 22.359375 C 5.25 22.445312 5.058594 22.574219 4.898438 22.746094 C 4.738281 22.921875 4.621094 23.121094 4.550781 23.347656 L 1.476562 33.339844 C 1.378906 33.65625 1.382812 33.96875 1.488281 34.285156 C 1.59375 34.597656 1.78125 34.851562 2.046875 35.046875 C 2.316406 35.242188 2.613281 35.339844 2.945312 35.34375 C 3.277344 35.347656 3.578125 35.253906 3.847656 35.066406 L 13.007812 28.652344 C 13.113281 28.578125 13.207031 28.492188 13.292969 28.394531 C 13.378906 28.296875 13.449219 28.1875 13.507812 28.074219 C 13.566406 27.957031 13.605469 27.835938 13.632812 27.707031 C 13.660156 27.582031 13.671875 27.453125 13.667969 27.324219 C 13.664062 27.191406 13.640625 27.066406 13.605469 26.941406 C 13.566406 26.816406 13.515625 26.699219 13.449219 26.585938 C 13.382812 26.476562 13.304688 26.375 13.210938 26.28125 C 13.117188 26.191406 13.015625 26.113281 12.90625 26.046875 Z M 12.90625 26.046875 "/><g clip-rule="nonzero" clip-path="url(#57ead9c0cf)"><path style=" stroke:none;fill-rule:nonzero;fill:#000000;fill-opacity:1;" d="M 44.382812 36.636719 L 40.898438 25.320312 C 40.859375 25.191406 40.804688 25.070312 40.730469 24.953125 C 40.660156 24.839844 40.574219 24.734375 40.476562 24.640625 C 40.375 24.550781 40.265625 24.472656 40.144531 24.40625 C 40.023438 24.34375 39.898438 24.296875 39.765625 24.265625 C 39.632812 24.234375 39.5 24.222656 39.363281 24.226562 C 39.226562 24.234375 39.09375 24.253906 38.964844 24.292969 C 38.835938 24.335938 38.710938 24.390625 38.597656 24.460938 C 38.480469 24.535156 38.378906 24.621094 38.285156 24.71875 L 23.976562 40.050781 C 23.765625 40.277344 23.636719 40.539062 23.582031 40.84375 C 23.53125 41.148438 23.566406 41.441406 23.6875 41.726562 C 23.8125 42.007812 24.003906 42.234375 24.261719 42.40625 C 24.519531 42.574219 24.800781 42.660156 25.109375 42.660156 L 39.9375 42.660156 C 40.300781 42.660156 40.660156 42.617188 41.011719 42.53125 C 41.367188 42.449219 41.707031 42.324219 42.03125 42.160156 C 42.355469 41.996094 42.660156 41.796875 42.9375 41.5625 C 43.214844 41.328125 43.460938 41.0625 43.679688 40.769531 C 43.894531 40.476562 44.074219 40.164062 44.214844 39.828125 C 44.359375 39.492188 44.460938 39.144531 44.523438 38.789062 C 44.582031 38.429688 44.601562 38.066406 44.578125 37.703125 C 44.554688 37.339844 44.488281 36.984375 44.382812 36.636719 Z M 44.382812 36.636719 "/></g><g clip-rule="nonzero" clip-path="url(#3ed3fd28da)"><path style=" stroke:none;fill-rule:nonzero;fill:#000000;fill-opacity:1;" d="M 29.5625 35.84375 L 12.902344 26.046875 C 12.640625 25.894531 12.359375 25.820312 12.058594 25.832031 C 11.753906 25.84375 11.476562 25.9375 11.230469 26.113281 L 2.070312 32.523438 C 1.78125 32.726562 1.582031 33 1.476562 33.335938 L 0.460938 36.636719 C 0.355469 36.984375 0.289062 37.339844 0.265625 37.703125 C 0.242188 38.066406 0.261719 38.429688 0.324219 38.785156 C 0.382812 39.144531 0.484375 39.492188 0.628906 39.828125 C 0.769531 40.164062 0.949219 40.476562 1.167969 40.769531 C 1.382812 41.0625 1.628906 41.328125 1.90625 41.5625 C 2.1875 41.796875 2.488281 41.996094 2.8125 42.160156 C 3.136719 42.324219 3.476562 42.449219 3.832031 42.53125 C 4.1875 42.617188 4.546875 42.660156 4.910156 42.660156 L 25.109375 42.660156 C 25.558594 42.660156 25.9375 42.496094 26.246094 42.164062 L 29.910156 38.238281 C 30.070312 38.066406 30.183594 37.867188 30.253906 37.644531 C 30.324219 37.417969 30.34375 37.191406 30.308594 36.957031 C 30.277344 36.726562 30.195312 36.511719 30.0625 36.316406 C 29.929688 36.121094 29.765625 35.964844 29.5625 35.84375 Z M 29.5625 35.84375 "/></g><g clip-rule="nonzero" clip-path="url(#192bd084be)"><path style=" stroke:none;fill-rule:nonzero;fill:#ba9345;fill-opacity:1;" d="M 41.15625 26.171875 L 25.773438 42.660156 L 21.539062 42.660156 L 26.316406 37.539062 L 12.1875 29.226562 L 0.257812 37.570312 C 0.289062 37.253906 0.355469 36.941406 0.460938 36.640625 L 1.640625 32.824219 L 9.253906 27.492188 L 4.199219 24.511719 L 5.128906 21.472656 L 28.488281 35.214844 L 39.902344 22.992188 C 39.960938 22.917969 40.035156 22.855469 40.117188 22.808594 Z M 41.15625 26.171875 "/></g><g clip-rule="nonzero" clip-path="url(#ce0da9e063)"><path style=" stroke:none;fill-rule:nonzero;fill:#ba9345;fill-opacity:1;" d="M 29.992188 5.574219 C 28.945312 4.546875 27.738281 3.765625 26.371094 3.230469 C 25.003906 2.699219 23.585938 2.457031 22.121094 2.503906 C 21.425781 2.53125 20.742188 2.621094 20.070312 2.773438 C 19.394531 2.929688 18.738281 3.148438 18.105469 3.425781 C 17.472656 3.707031 16.871094 4.042969 16.300781 4.433594 C 15.730469 4.828125 15.203125 5.269531 14.714844 5.765625 C 14.230469 6.257812 13.792969 6.792969 13.410156 7.367188 C 13.023438 7.945312 12.699219 8.550781 12.429688 9.191406 C 12.160156 9.828125 11.953125 10.484375 11.808594 11.164062 C 11.660156 11.839844 11.582031 12.523438 11.566406 13.21875 C 11.546875 14.402344 11.71875 15.558594 12.085938 16.6875 C 12.453125 17.816406 12.988281 18.851562 13.703125 19.800781 C 13.898438 20.09375 18.785156 26.890625 20.347656 29.058594 C 20.460938 29.214844 20.59375 29.359375 20.742188 29.484375 C 20.890625 29.613281 21.050781 29.722656 21.226562 29.8125 C 21.398438 29.898438 21.582031 29.96875 21.769531 30.015625 C 21.960938 30.0625 22.152344 30.085938 22.347656 30.085938 C 22.542969 30.085938 22.734375 30.0625 22.925781 30.019531 C 23.117188 29.976562 23.300781 29.910156 23.472656 29.820312 C 23.648438 29.734375 23.808594 29.625 23.960938 29.5 C 24.109375 29.375 24.242188 29.230469 24.355469 29.074219 C 24.417969 28.996094 30.867188 20.175781 31.117188 19.855469 C 32.550781 17.925781 33.269531 15.757812 33.277344 13.355469 C 33.285156 11.890625 33 10.480469 32.429688 9.128906 C 31.859375 7.78125 31.046875 6.59375 29.992188 5.574219 Z M 29.992188 5.574219 "/></g><path style=" stroke:none;fill-rule:nonzero;fill:#ffffff;fill-opacity:1;" d="M 27.074219 13.5 C 27.074219 13.804688 27.046875 14.109375 26.984375 14.410156 C 26.925781 14.707031 26.839844 15 26.722656 15.28125 C 26.605469 15.5625 26.460938 15.832031 26.292969 16.085938 C 26.121094 16.339844 25.929688 16.574219 25.710938 16.792969 C 25.496094 17.007812 25.261719 17.199219 25.007812 17.371094 C 24.753906 17.539062 24.484375 17.683594 24.203125 17.800781 C 23.921875 17.917969 23.628906 18.003906 23.332031 18.066406 C 23.03125 18.125 22.726562 18.152344 22.421875 18.152344 C 22.117188 18.152344 21.8125 18.125 21.515625 18.066406 C 21.214844 18.003906 20.925781 17.917969 20.640625 17.800781 C 20.359375 17.683594 20.089844 17.539062 19.835938 17.371094 C 19.582031 17.199219 19.347656 17.007812 19.132812 16.792969 C 18.917969 16.574219 18.722656 16.339844 18.554688 16.085938 C 18.382812 15.832031 18.242188 15.5625 18.125 15.28125 C 18.007812 15 17.917969 14.707031 17.859375 14.410156 C 17.800781 14.109375 17.769531 13.804688 17.769531 13.5 C 17.769531 13.195312 17.800781 12.894531 17.859375 12.59375 C 17.917969 12.292969 18.007812 12.003906 18.125 11.71875 C 18.242188 11.4375 18.382812 11.171875 18.554688 10.917969 C 18.722656 10.660156 18.917969 10.425781 19.132812 10.210938 C 19.347656 9.996094 19.582031 9.800781 19.835938 9.632812 C 20.089844 9.460938 20.359375 9.320312 20.640625 9.203125 C 20.925781 9.085938 21.214844 8.996094 21.515625 8.9375 C 21.8125 8.878906 22.117188 8.847656 22.421875 8.847656 C 22.726562 8.847656 23.03125 8.878906 23.332031 8.9375 C 23.628906 8.996094 23.921875 9.085938 24.203125 9.203125 C 24.484375 9.320312 24.753906 9.460938 25.007812 9.632812 C 25.261719 9.800781 25.496094 9.996094 25.710938 10.210938 C 25.929688 10.425781 26.121094 10.660156 26.292969 10.917969 C 26.460938 11.171875 26.605469 11.4375 26.722656 11.71875 C 26.839844 12.003906 26.925781 12.292969 26.984375 12.59375 C 27.046875 12.894531 27.074219 13.195312 27.074219 13.5 Z M 27.074219 13.5 "/></g></svg>