<svg xmlns="http://www.w3.org/2000/svg" xmlns:xlink="http://www.w3.org/1999/xlink" width="60" zoomAndPan="magnify" viewBox="0 0 45 44.999999" height="60" preserveAspectRatio="xMidYMid meet" version="1.2"><g id="9532271c0f"><path style=" stroke:none;fill-rule:nonzero;fill:#ba9345;fill-opacity:1;" d="M 23.070312 5.949219 C 18.839844 5.949219 14.785156 7.628906 11.796875 10.617188 C 8.804688 13.605469 7.125 17.664062 7.125 21.890625 C 7.144531 24.667969 7.886719 27.390625 9.28125 29.792969 C 9.261719 29.828125 9.242188 29.859375 9.238281 29.890625 C 9.191406 30.234375 8.058594 34.273438 7.417969 36.433594 C 7.003906 37.816406 6.992188 37.957031 7.265625 37.957031 C 7.378906 37.957031 9.253906 37.488281 11.429688 36.917969 C 13.984375 36.246094 14.898438 36 15.464844 35.855469 C 17.796875 37.140625 20.410156 37.820312 23.070312 37.835938 C 27.296875 37.835938 31.351562 36.15625 34.34375 33.164062 C 37.332031 30.175781 39.011719 26.121094 39.011719 21.890625 C 39.011719 19.796875 38.601562 17.722656 37.800781 15.789062 C 36.996094 13.855469 35.824219 12.097656 34.34375 10.617188 C 32.863281 9.136719 31.105469 7.960938 29.171875 7.160156 C 27.238281 6.359375 25.164062 5.949219 23.070312 5.949219 Z M 23.070312 8.226562 C 24.863281 8.226562 26.640625 8.578125 28.296875 9.265625 C 29.957031 9.953125 31.464844 10.960938 32.730469 12.226562 C 34 13.496094 35.007812 15.003906 35.695312 16.660156 C 36.382812 18.320312 36.734375 20.097656 36.734375 21.890625 C 36.734375 25.515625 35.292969 28.992188 32.730469 31.554688 C 30.167969 34.117188 26.695312 35.554688 23.070312 35.554688 C 20.359375 35.542969 17.714844 34.730469 15.472656 33.210938 L 12.636719 33.929688 C 12.628906 33.929688 12.621094 33.933594 12.617188 33.933594 C 12.023438 34.070312 10.871094 34.351562 10.824219 34.300781 C 10.777344 34.253906 10.921875 33.613281 11.199219 32.449219 L 11.890625 29.71875 C 10.277344 27.425781 9.410156 24.691406 9.40625 21.890625 C 9.40625 18.265625 10.84375 14.789062 13.40625 12.226562 C 15.96875 9.664062 19.445312 8.226562 23.070312 8.226562 Z M 17.785156 14.316406 C 17.292969 14.34375 16.746094 14.566406 16.328125 14.949219 C 15.351562 15.835938 15.003906 16.652344 14.996094 18.078125 C 14.988281 20.078125 16.109375 22.136719 18.65625 24.789062 C 20.800781 27.023438 22.417969 28.070312 25.191406 29.011719 C 26.730469 29.539062 27.246094 29.578125 28.449219 29.277344 C 28.972656 29.144531 29.601562 28.777344 30.128906 28.292969 C 30.863281 27.621094 30.984375 27.402344 31.082031 26.546875 L 31.140625 26.011719 C 31.15625 25.824219 30.980469 25.492188 30.722656 25.34375 L 29.449219 24.726562 C 28.492188 24.257812 27.53125 23.878906 27.316406 23.878906 C 26.917969 23.878906 26.566406 24.195312 25.984375 25.089844 C 25.398438 25.984375 25.132812 25.996094 23.535156 25.195312 C 21.894531 24.371094 20.113281 22.742188 19.375 21.390625 L 19.070312 20.828125 C 19 20.695312 19.011719 20.464844 19.085938 20.355469 L 19.609375 19.667969 C 19.984375 19.175781 20.292969 18.632812 20.292969 18.460938 C 20.292969 18.007812 18.835938 14.667969 18.5625 14.492188 C 18.351562 14.359375 18.078125 14.304688 17.785156 14.316406 Z M 17.785156 14.316406 "/><path style=" stroke:none;fill-rule:nonzero;fill:#ba9345;fill-opacity:1;" d="M 7.765625 0 C 3.460938 0 0 3.460938 0 7.765625 L 0 37.234375 C 0 41.535156 3.460938 45 7.765625 45 L 37.234375 45 C 41.535156 45 45 41.535156 45 37.234375 L 45 7.765625 C 45 3.460938 41.535156 0 37.234375 0 Z M 8.460938 2.148438 L 36.535156 2.148438 C 40.035156 2.148438 42.851562 4.964844 42.851562 8.460938 L 42.851562 36.535156 C 42.851562 40.035156 40.035156 42.851562 36.535156 42.851562 L 8.460938 42.851562 C 4.964844 42.851562 2.148438 40.035156 2.148438 36.535156 L 2.148438 8.460938 C 2.148438 4.964844 4.964844 2.148438 8.460938 2.148438 Z M 8.460938 2.148438 "/></g></svg>